<?xml version="1.0" encoding="utf-8" ?>
<svg xmlns="http://www.w3.org/2000/svg" xmlns:xlink="http://www.w3.org/1999/xlink" width="1024" height="1024" viewBox="0 0 1024 1024">
  <path fill="#E9E9EA" transform="scale(2 2)" d="M246.898 103.707L334.457 103.701C343.471 103.699 353.381 103.432 362.147 105.623C383.655 111.001 401.774 128.797 406.628 150.539C408.517 159.002 408.03 170.232 408.018 179.039L408.084 321.306C408.111 330.333 408.472 343.973 407.264 352.595C403.721 377.883 381.736 401.684 356.593 406.836C350.801 408.022 346.114 407.797 340.189 407.781L265.494 407.761L174.457 407.769C168.234 407.772 161.309 408.021 155.236 406.689C126.246 400.332 103.9 375.543 103.779 345.194L103.771 180.866C103.772 172.336 103.46 160.649 105.006 152.474C108.947 131.632 127.396 112.112 147.673 106.209C156.81 103.549 167.85 103.698 177.373 103.702L246.898 103.707Z"/>
  <defs>
    <linearGradient id="gradient_0" gradientUnits="userSpaceOnUse" x1="215.2034" y1="292.48895" x2="303.93231" y2="166.049">
      <stop offset="0" stop-color="#3177E6"/>
      <stop offset="1" stop-color="#4DA2EF"/>
    </linearGradient>
  </defs>
  <path fill="url(#gradient_0)" transform="scale(2 2)" d="M250.557 151.51C260.951 151.362 270.321 151.915 280.428 154.808C321.13 166.458 348.309 207.337 342.208 249.363C341.498 254.254 339.903 260.187 338.556 264.987C331.817 254.385 324.161 255.71 313.004 255.754C313.436 225.312 298.269 195.706 265.494 191.632C265.484 185.09 266.846 179.179 260.471 175.375C247.674 169.556 246.704 183.243 246.898 191.632C222.88 195.076 202.715 215.677 200.01 239.801C199.421 245.048 199.646 250.473 199.661 255.754C187.593 255.717 181.589 253.843 174.259 264.987C156.202 210.725 193.684 156.248 250.557 151.51Z"/>
  <path fill="#3C87EA" transform="scale(2 2)" d="M253.059 207.553C273.817 204.332 293.942 222.73 296.23 242.836C296.68 246.792 296.555 251.672 296.534 255.754L260.471 255.754L215.717 255.754C215.706 252.25 215.55 248.802 215.726 245.288C216.713 225.61 232.879 208.177 253.059 207.553Z"/>
  <path fill="#3263E9" transform="scale(2 2)" d="M174.259 264.987C181.589 253.843 187.593 255.717 199.661 255.754L313.004 255.754C324.161 255.71 331.817 254.385 338.556 264.987C335.811 275.116 331.957 284.978 327.081 294.34L327.081 329.146C327.086 332.969 326.764 336.769 327.777 340.519C329.034 344.954 332.375 347.611 336.035 349.978C339.919 347.589 343.447 344.788 344.784 340.519C345.898 336.967 345.503 332.889 345.514 329.146L345.514 294.34C340.612 284.935 336.741 275.026 333.988 264.842C355.178 265.135 355.388 291.024 355.395 305.826L355.395 329.146C355.399 332.955 355.057 336.738 356.115 340.519C357.39 345.053 360.837 347.813 364.651 350.273C368.396 347.869 371.76 345.189 373.018 340.667C374.076 336.847 373.74 332.997 373.743 329.146L373.743 305.826C373.752 291.022 373.971 264.935 395.234 264.842C392.447 275.109 388.533 285.102 383.623 294.587L383.623 329.146C383.626 332.924 383.309 336.688 384.318 340.519C385.555 345.057 389.066 347.9 392.979 350.421C396.722 347.955 400.024 345.332 401.256 340.667C402.278 336.931 401.967 333.036 401.97 329.146L401.97 294.587C397.083 285.121 393.186 275.14 390.442 264.842C404.096 264.99 411.728 272.933 414.848 285.682C418.161 299.258 416.503 314.139 416.506 328.103L416.506 359.764C416.532 372.092 416.464 384.651 412.119 396.289C404.815 415.814 388.065 423.872 367.3 424.085C349.843 424.27 337.144 417.104 327.777 404.247C322.99 397.696 320.129 389.753 318.982 381.475C318.003 374.592 318.237 367.454 318.231 360.469L318.231 294.34C313.295 284.858 309.357 274.978 306.524 264.842C324.072 265.072 325.06 288.098 325.067 300.774L325.067 339.815C325.075 353.159 323.498 367.084 326.629 380.284C331.399 400.165 346.636 416.165 366.152 421.252C374.056 423.308 383.017 422.963 391.149 422.954C400.064 422.945 407.825 422.097 416.359 419.068C431.758 413.796 444.237 399.938 447.992 384.579C450.075 376.514 449.689 367.716 449.673 359.469L449.673 328.103C449.684 322.604 449.9 317.08 449.378 311.611C446.93 287.399 431.031 265.659 407.264 260.136C399.436 258.306 390.612 258.611 382.575 258.617C374.055 258.623 366.313 259.423 357.857 261.99C342.634 266.614 330.146 279.506 325.363 294.34C313.517 285.001 299.087 279.155 283.578 279.128C267.903 279.1 253.348 284.982 241.448 294.34C236.617 279.346 223.967 266.368 208.556 261.694C200.042 258.995 191.052 258.604 182.141 258.617C173.838 258.629 164.806 258.388 156.883 260.432C133.083 266.186 117.23 287.997 114.87 311.611C114.373 317.014 114.566 322.473 114.576 327.955L114.576 359.617C114.574 367.76 114.161 376.466 116.232 384.432C119.973 399.875 132.502 413.788 147.968 419.068C156.544 422.105 164.365 422.954 173.342 422.954C181.525 422.963 190.548 423.312 198.508 421.252C218.117 416.149 233.407 400.063 238.164 380.136C241.268 366.985 239.711 353.108 239.718 339.815L239.718 300.774C239.726 288.072 240.733 265.039 258.363 264.842C255.551 274.926 251.656 284.776 246.75 294.192L246.75 328.999C246.752 332.877 246.411 336.74 247.455 340.519C248.717 345.053 252.164 347.813 255.979 350.273C259.723 347.869 263.088 345.189 264.346 340.667C265.403 336.847 265.068 332.997 265.071 329.146L265.071 294.192C260.152 284.696 256.259 274.771 253.502 264.695C268.115 264.826 275.747 272.769 278.867 285.518C282.181 299.094 280.522 313.974 280.526 327.955L280.526 359.617C280.552 371.945 280.483 384.504 276.139 396.141C268.835 415.667 252.084 423.724 231.319 423.938C213.863 424.122 201.163 416.957 191.796 404.1C186.989 397.528 184.119 389.558 182.971 381.254C182.003 374.434 182.227 367.361 182.221 360.469L182.221 328.851C182.217 315.066 183.841 301.043 180.756 287.551C177.459 273.151 166.669 260.915 152.198 257.616C146.169 256.236 139.634 256.578 133.453 256.602C121.709 256.649 115.596 253.955 107.806 264.695C105.035 274.872 101.125 284.801 96.2 294.34L96.2 329.146C96.2033 332.997 95.8685 336.847 96.9254 340.667C98.1832 345.189 101.548 347.869 105.291 350.273C109.106 347.813 112.553 345.053 113.815 340.519C114.859 336.74 114.518 332.877 114.521 328.999L114.521 294.34C109.594 284.843 105.681 274.917 102.911 264.842C117.601 264.962 125.234 272.905 128.354 285.683C131.668 299.258 130.009 314.139 130.013 328.103L130.013 359.764C130.039 372.092 129.97 384.651 125.626 396.289C118.322 415.814 101.572 423.872 80.8069 424.085C63.3502 424.27 50.6506 417.104 41.284 404.247C36.4971 397.696 33.6362 389.753 32.4889 381.475C31.5099 374.592 31.7438 367.454 31.7378 360.469L31.7378 294.34C26.8016 284.858 22.8642 274.978 20.0307 264.842C37.5785 265.072 38.5667 288.098 38.5736 300.774L38.5736 339.815C38.5821 353.159 37.0049 367.084 40.1356 380.284C44.9059 400.165 60.1424 416.165 79.6587 421.252C87.5629 423.308 96.5237 422.963 104.656 422.954C113.57 422.945 121.332 422.097 129.866 419.068C145.265 413.796 157.744 399.938 161.499 384.579C163.582 376.514 163.196 367.716 163.18 359.469L163.18 328.103C163.191 322.604 163.407 317.08 162.885 311.611C160.437 287.399 144.538 265.659 120.771 260.136C112.943 258.306 104.119 258.611 96.0817 258.617C87.5622 258.623 79.8202 259.423 71.3641 261.99C56.1405 266.614 43.653 279.506 38.8701 294.34C27.0236 285.001 12.5945 279.155 -2.91476 279.128C-18.5904 279.1 -33.1454 284.982 -45.0453 294.34C-49.8768 279.346 -62.5264 266.368 -77.9372 261.694C-86.4515 258.995 -95.4415 258.604 -104.352 258.617C-112.655 258.629 -121.688 258.388 -129.611 260.432C-153.411 266.186 -169.263 287.997 -171.623 311.611C-172.12 317.014 -171.927 322.473 -171.917 327.955L-171.917 359.617C-171.92 367.76 -172.332 376.466 -170.261 384.432C-166.52 399.875 -153.991 413.788 -138.526 419.068C-129.949 422.105 -122.128 422.954 -113.152 422.954C-104.968 422.963 -95.9453 423.312 -87.9854 421.252C-68.3767 416.149 -53.0865 400.063 -48.3296 380.136C-45.225 366.985 -46.7821 353.108 -46.7752 339.815L-46.7752 300.774C-46.7684 288.072 -45.7603 265.039 -28.1303 264.842C-30.9425 274.926 -34.8373 284.776 -39.7437 294.192L-39.7437 328.999C-39.741 332.877 -40.0827 336.74 -39.0385 340.519C-37.7764 345.053 -34.3294 347.813 -30.5143 350.273C-26.7703 347.869 -23.4055 345.189 -22.1477 340.667C-21.0908 336.847 -21.4256 332.997 -21.4226 329.146L-21.4226 294.192C-26.3418 284.696 -30.2348 274.771 -32.9916 264.695C-18.3787 264.826 -10.7469 272.769 -7.62644 285.518C-4.31274 299.094 -5.97155 313.974 -5.96764 327.955L-5.96764 359.617C-5.94135 371.945 -6.01074 384.504 -10.3545 396.141C-17.6585 415.667 -34.4093 423.724 -55.1746 423.938C-72.6313 424.122 -85.3308 416.957 -94.6975 404.1C-99.5044 397.528 -102.374 389.558 -103.522 381.254C-104.491 374.434 -104.266 367.361 -104.272 360.469L-104.272 328.851C-104.276 315.066 -102.652 301.043 -105.737 287.551C-109.034 273.151 -119.824 260.915 -134.295 257.616C-140.324 256.236 -146.859 256.578 -153.04 256.602C-164.784 256.649 -170.897 253.955 -178.687 264.695C-181.458 274.872 -185.368 284.801 -190.293 294.34L-190.293 329.146C-190.29 332.997 -190.625 336.847 -189.568 340.667C-188.31 345.189 -184.945 347.869 -181.202 350.273C-177.387 347.813 -173.94 345.053 -172.678 340.519C-171.634 336.74 -171.975 332.877 -171.972 328.999L-171.972 294.34C-176.899 284.843 -180.812 274.917 -183.582 264.842C-168.892 264.962 -161.259 272.905 -158.139 285.683C-154.825 299.258 -156.484 314.139 -156.48 328.103L-156.48 359.764C-156.454 372.092 -156.523 384.651 -160.867 396.289C-168.171 415.814 -184.921 423.872 -205.686 424.085C-223.143 424.27 -235.842 417.104 -245.209 404.247C-249.996 397.696 -252.857 389.753 -254.004 381.475C-254.983 374.592 -254.749 367.454 -254.755 360.469L-254.755 294.34C-259.692 284.858 -263.629 274.978 -266.462 264.842C-248.914 265.072 -247.926 288.098 -247.919 300.774L-247.919 339.815C-247.911 353.159 -249.488 367.084 -246.357 380.284C-241.587 400.165 -226.351 416.165 -206.834 421.252C-198.93 423.308 -189.969 422.963 -181.837 422.954C-172.923 422.945 -165.161 422.097 -156.627 419.068C-141.228 413.796 -128.749 399.938 -124.994 384.579C-122.911 376.514 -123.297 367.716 -123.313 359.469L-123.313 328.103C-123.302 322.604 -123.086 317.08 -123.608 311.611C-126.056 287.399 -141.955 265.659 -165.722 260.136C-173.55 258.306 -182.374 258.611 -190.411 258.617C-198.931 258.623 -206.673 259.423 -215.129 261.99C-230.353 266.614 -242.84 279.506 -247.623 294.34C-259.469 285.001 -273.898 279.155 -289.408 279.128C-305.083 279.1 -319.638 284.982 -331.538 294.34C-336.37 279.346 -349.019 266.368 -364.43 261.694C-372.944 258.995 -381.934 258.604 -390.845 258.617C-399.148 258.629 -408.181 258.388 -416.104 260.432C-439.904 266.186 -455.756 287.997 -458.116 311.611C-458.613 317.014 -458.42 322.473 -458.41 327.955L-458.41 359.617C-458.413 367.76 -458.825 376.466 -456.754 384.432C-453.013 399.875 -440.484 413.788 -425.019 419.068C-416.442 422.105 -408.621 422.954 -399.645 422.954C-391.461 422.963 -382.438 423.312 -374.478 421.252C-354.869 416.149 -339.579 400.063 -334.822 380.136C-331.718 366.985 -333.275 353.108 -333.268 339.815L-333.268 300.774C-333.261 288.072 -332.253 265.039 -314.623 264.842C-317.435 274.926 -321.33 284.776 -326.237 294.192L-326.237 328.999C-326.234 332.877 -326.576 336.74 -325.532 340.519C-324.27 345.053 -320.823 347.813 -317.008 350.273C-313.263 347.869 -309.899 345.189 -308.641 340.667C-307.584 336.847 -307.919 332.997 -307.916 329.146L-307.916 294.192C-312.835 284.696 -316.728 274.771 -319.485 264.695C-304.872 264.826 -297.24 272.769 -294.12 285.518C-290.806 299.094 -292.465 313.974 -292.461 327.955L-292.461 359.617C-292.435 371.945 -292.504 384.504 -296.848 396.141C-304.152 415.667 -320.902 423.724 -341.668 423.938C-359.124 424.122 -371.824 416.957 -381.191 404.1C-385.998 397.528 -388.868 389.558 -390.015 381.254C-390.984 374.434 -390.76 367.361 -390.766 360.469L-390.766 328.851C-390.77 315.066 -389.146 301.043 -392.231 287.551C-395.528 273.151 -406.318 260.915 -420.789 257.616C-426.818 256.236 -433.353 256.578 -439.534 256.602C-451.278 256.649 -457.391 253.955 -465.181 264.695"/>
</svg>
